<svg width="16" height="16" viewBox="0 0 16 16" fill="none" xmlns="http://www.w3.org/2000/svg">
<path d="M0.690281 5.12254C0.362384 5.54078 0.205128 5.98913 0.225204 6.45086C0.245278 6.95943 0.472798 7.35759 0.660168 7.60184C0.442685 8.14387 0.359039 8.99707 1.0851 9.65956C1.61709 10.1447 2.52048 10.3622 3.77184 10.302C4.6518 10.2618 5.3879 10.0979 5.41801 10.0912H5.42136C5.58865 10.0611 5.76598 10.0243 5.94666 9.98411C5.96004 10.1982 5.92324 10.7302 5.52842 11.9281C5.06 13.3534 5.08677 14.4442 5.61542 15.1736C6.17083 15.9398 7.05749 16 7.31847 16C7.56941 16 7.80028 15.8963 7.96422 15.7056C8.33562 15.2739 8.29212 14.4776 8.24528 14.1096C8.68694 12.9251 9.92491 10.0209 10.9722 9.21455C10.9922 9.20117 11.009 9.18444 11.0257 9.16771C11.3335 8.84316 11.541 8.49184 11.6815 8.18402C11.8789 8.29109 12.1031 8.35132 12.344 8.35132H14.385C15.1545 8.35132 15.7769 7.72564 15.7769 6.95943L15.7769 1.52238C15.7769 0.752823 15.1512 0.13049 14.385 0.13049H12.344C12.0462 0.13049 11.7685 0.224174 11.541 0.384776L10.7547 0.291092C10.6342 0.274363 8.49287 0.00334644 6.29463 0.0468435C5.89647 0.0167303 5.52173 0 5.17376 0C4.57485 0 4.05289 0.0468426 3.61793 0.140528C2.59409 0.358009 1.8948 0.792974 1.54013 1.43204C1.26912 1.92054 1.26912 2.40569 1.31261 2.71351C0.646784 3.31577 0.529679 3.9816 0.553101 4.45002C0.566483 4.72104 0.626709 4.9519 0.690281 5.12254ZM14.385 1.03388C14.656 1.03388 14.8735 1.25471 14.8735 1.52238L14.8735 6.96278C14.8735 7.23379 14.6526 7.45128 14.385 7.45128H12.344C12.073 7.45128 11.8555 7.23045 11.8555 6.96278L11.8555 1.52572C11.8555 1.25471 12.0763 1.03722 12.344 1.03722H14.385V1.03388ZM1.54683 5.51401C1.68735 5.36679 1.71412 5.14262 1.60705 4.96863C1.60705 4.96529 1.46987 4.73108 1.45314 4.40987C1.42972 3.97156 1.64051 3.58344 2.08217 3.2522C2.23942 3.13174 2.30299 2.9243 2.23608 2.73693C2.23608 2.73358 2.09221 2.29193 2.32642 1.87369C2.55059 1.47219 3.04913 1.18444 3.80529 1.02384C4.4109 0.893351 5.23399 0.869929 6.24444 0.950231H6.29128C8.44269 0.903389 10.6175 1.18444 10.6409 1.18779H10.6443L10.9822 1.22794C10.9621 1.32162 10.9521 1.422 10.9521 1.52238L10.9521 6.96278C10.9521 7.10665 10.9755 7.24718 11.0157 7.37767C10.9554 7.60184 10.7881 8.10038 10.3933 8.5253C8.89103 9.71644 7.42219 13.7348 7.35862 13.9088C7.33185 13.9791 7.32516 14.056 7.33855 14.133C7.39543 14.5077 7.37535 14.9661 7.29505 15.1033C7.11772 15.1 6.63926 15.0498 6.35151 14.6516C6.01023 14.1798 6.02361 13.3367 6.39166 12.2192C6.95377 10.5161 7.00061 9.61941 6.55561 9.22459C6.33478 9.02719 6.04034 9.01715 5.82621 9.0941C5.62211 9.14095 5.42805 9.1811 5.24402 9.21121C5.23064 9.21455 5.21391 9.2179 5.20053 9.22125C4.17334 9.44542 2.33311 9.5826 1.69404 9.00042C1.15201 8.50523 1.53679 7.84944 1.58029 7.77917C1.70408 7.5918 1.66728 7.34755 1.49998 7.19699C1.49664 7.19364 1.14532 6.8624 1.12859 6.4174C1.11521 6.11962 1.25573 5.81514 1.54683 5.51401Z" fill="#290247"/>
</svg>
