<svg width="16" height="16" viewBox="0 0 16 16" fill="none" xmlns="http://www.w3.org/2000/svg">
<path d="M15.3097 10.8775C15.6376 10.4592 15.7949 10.0109 15.7748 9.54914C15.7547 9.04057 15.5272 8.64241 15.3398 8.39816C15.5573 7.85613 15.641 7.00293 14.9149 6.34044C14.3829 5.85529 13.4795 5.63781 12.2282 5.69803C11.3482 5.73818 10.6121 5.90213 10.582 5.90882H10.5786C10.4114 5.93894 10.234 5.97574 10.0533 6.01589C10.04 5.80176 10.0768 5.26976 10.4716 4.07194C10.94 2.64659 10.9132 1.55583 10.3846 0.826432C9.82917 0.0602259 8.94251 0 8.68153 0C8.43059 0 8.19972 0.103722 8.03578 0.294437C7.66438 0.726056 7.70788 1.52238 7.75472 1.89042C7.31306 3.07486 6.07509 5.97909 5.02783 6.78545C5.00775 6.79883 4.99102 6.81556 4.97429 6.83229C4.66647 7.15684 4.45903 7.50816 4.3185 7.81598C4.12109 7.70891 3.89692 7.64868 3.65602 7.64868H1.61503C0.845478 7.64868 0.223145 8.27436 0.223145 9.04057V14.4776C0.223145 15.2472 0.848824 15.8695 1.61503 15.8695H3.65602C3.9538 15.8695 4.23151 15.7758 4.45903 15.6152L5.24531 15.7089C5.36576 15.7256 7.50713 15.9967 9.70537 15.9532C10.1035 15.9833 10.4783 16 10.8262 16C11.4252 16 11.9471 15.9532 12.3821 15.8595C13.4059 15.642 14.1052 15.207 14.4599 14.568C14.7309 14.0795 14.7309 13.5943 14.6874 13.2865C15.3532 12.6842 15.4703 12.0184 15.4469 11.55C15.4335 11.279 15.3733 11.0481 15.3097 10.8775ZM1.61503 14.9661C1.34401 14.9661 1.12653 14.7453 1.12653 14.4776V9.03722C1.12653 8.76621 1.34736 8.54872 1.61503 8.54872H3.65602C3.92703 8.54872 4.14452 8.76955 4.14452 9.03722V14.4743C4.14452 14.7453 3.92369 14.9628 3.65602 14.9628H1.61503V14.9661ZM14.4532 10.486C14.3126 10.6332 14.2859 10.8574 14.3929 11.0314C14.3929 11.0347 14.5301 11.2689 14.5469 11.5901C14.5703 12.0284 14.3595 12.4166 13.9178 12.7478C13.7606 12.8683 13.697 13.0757 13.7639 13.2631C13.7639 13.2664 13.9078 13.7081 13.6736 14.1263C13.4494 14.5278 12.9509 14.8156 12.1947 14.9762C11.5891 15.1066 10.766 15.1301 9.75556 15.0498H9.70872C7.55731 15.0966 5.38249 14.8156 5.35907 14.8122H5.35572L5.01779 14.7721C5.03787 14.6784 5.0479 14.578 5.0479 14.4776V9.03722C5.0479 8.89335 5.02448 8.75282 4.98433 8.62233C5.04456 8.39816 5.21185 7.89962 5.60667 7.4747C7.10897 6.28356 8.57781 2.26516 8.64138 2.09118C8.66815 2.02091 8.67484 1.94396 8.66145 1.867C8.60457 1.49226 8.62465 1.03388 8.70495 0.896696C8.88228 0.900042 9.36074 0.95023 9.64849 1.34839C9.98977 1.82016 9.97639 2.66332 9.60834 3.78084C9.04623 5.4839 8.99939 6.38059 9.44439 6.77541C9.66522 6.97281 9.95966 6.98285 10.1738 6.9059C10.3779 6.85905 10.572 6.8189 10.756 6.78879C10.7694 6.78545 10.7861 6.7821 10.7995 6.77875C11.8267 6.55458 13.6669 6.4174 14.306 6.99958C14.848 7.49477 14.4632 8.15056 14.4197 8.22083C14.2959 8.4082 14.3327 8.65245 14.5 8.80301C14.5034 8.80636 14.8547 9.1376 14.8714 9.5826C14.8848 9.88038 14.7443 10.1849 14.4532 10.486Z" fill="#290247"/>
</svg>
