<svg width="20" height="32" viewBox="0 0 20 32" fill="none" xmlns="http://www.w3.org/2000/svg">
<path d="M0.294696 17.1746C-0.522637 18.7813 0.405363 19.5493 2.5227 20.8613C4.3227 21.9733 6.80936 22.38 8.4067 22.5426C7.75203 23.172 10.752 20.2866 2.11203 28.5973C0.280029 30.3533 3.22936 33.1706 5.06003 31.452L10.016 26.672C11.9134 28.4973 13.732 30.2466 14.972 31.4586C16.804 33.184 19.752 30.3906 17.94 28.604C17.804 28.4746 11.224 22.1626 11.6254 22.5493C13.2427 22.3866 15.692 21.956 17.4707 20.868L17.4694 20.8666C19.5867 19.548 20.5147 18.7813 19.7094 17.1746C19.2227 16.2626 17.9107 15.5 16.164 16.8186C16.164 16.8186 13.8054 18.6253 10.0014 18.6253C6.19603 18.6253 3.8387 16.8186 3.8387 16.8186C2.09336 15.4933 0.77603 16.2626 0.294696 17.1746Z" fill="#290247"/>
<path d="M9.9987 16.1893C14.636 16.1893 18.4227 12.5653 18.4227 8.104C18.4227 3.624 14.636 0 9.9987 0C5.36003 0 1.57336 3.624 1.57336 8.104C1.57336 12.5653 5.36003 16.1893 9.9987 16.1893ZM9.9987 4.10533C12.2774 4.10533 14.136 5.89333 14.136 8.104C14.136 10.296 12.2774 12.084 9.9987 12.084C7.72003 12.084 5.86136 10.296 5.86136 8.104C5.86003 5.892 7.7187 4.10533 9.9987 4.10533Z" fill="#290247"/>
</svg>
